<svg width="39" height="49" viewBox="0 0 39 49" fill="none" xmlns="http://www.w3.org/2000/svg">
<path d="M0.68 48.8125H38.133V39.9685H13.008L19.172 35.6805C29.557 28.7125 38.133 22.5485 38.133 14.7765C38.133 6.4685 30.294 0.907498 19.105 0.907498C7.916 0.907498 0.211 6.6695 0.211 14.9105C0.211 23.0845 7.983 28.8465 19.105 28.8465C21.852 28.8465 24.398 27.9755 26.341 26.5685C24.599 29.3155 21.517 32.3975 19.105 34.2065L0.68 47.7405V48.8125ZM19.105 27.7075C13.544 27.7075 9.792 22.5485 9.792 14.9105C9.792 7.0715 13.544 1.8455 19.105 1.8455C24.666 1.8455 28.552 6.6695 28.552 16.3175C28.552 22.4815 25.537 27.7075 19.105 27.7075Z" fill="#653726"/>
</svg>
