<svg width="37" height="49" viewBox="0 0 37 49" fill="none" xmlns="http://www.w3.org/2000/svg">
<path d="M17.425 48.6165C29.15 48.6165 35.85 42.1175 35.85 33.9435C35.85 26.0375 29.284 21.2805 21.11 21.2805C18.899 21.2805 16.688 21.6825 14.477 22.6875L36.118 2.1855V0.912497H2.618V9.7565H26.269L10.457 24.7645L11.395 25.7695L11.797 25.4345C13.673 24.0275 15.884 23.0895 18.028 23.0895C23.12 23.0895 26.068 27.7795 26.068 33.6755C26.068 40.3085 22.383 45.8695 14.946 45.8695C7.911 45.8695 2.752 41.3135 2.015 34.0105H0.742C1.345 42.5195 7.844 48.6165 17.425 48.6165Z" fill="#653726"/>
</svg>
